<?xml version="1.0" standalone="no"?>
<!DOCTYPE svg PUBLIC "-//W3C//DTD SVG 20010904//EN"
 "http://www.w3.org/TR/2001/REC-SVG-20010904/DTD/svg10.dtd">
<svg version="1.0" xmlns="http://www.w3.org/2000/svg"
 width="512.000000pt" height="512.000000pt" viewBox="0 0 512.000000 512.000000"
 preserveAspectRatio="xMidYMid meet">
<metadata>
Created by potrace 1.14, written by Peter Selinger 2001-2017
</metadata>
<g transform="translate(0.000000,512.000000) scale(0.100000,-0.100000)"
fill="#000000" stroke="none">
<path d="M2428 5024 c-163 -24 -216 -47 -568 -246 -102 -58 -212 -120 -245
-138 -33 -18 -73 -41 -90 -51 -16 -10 -55 -32 -85 -49 -30 -16 -77 -42 -105
-58 -27 -16 -187 -106 -354 -201 -324 -183 -386 -225 -472 -318 -116 -126
-211 -309 -234 -453 -3 -19 -9 -44 -12 -55 -9 -27 -10 -1640 -2 -1735 9 -96
14 -122 40 -206 66 -216 229 -419 428 -532 57 -33 630 -357 661 -375 143 -80
461 -260 535 -302 306 -178 430 -219 651 -216 82 0 136 7 209 26 117 29 181
58 375 169 80 46 291 165 470 266 179 100 337 191 352 201 15 11 30 19 33 19
7 0 366 205 434 248 29 19 86 65 126 103 158 151 262 366 282 582 10 106 9
1663 -1 1742 -39 305 -221 560 -516 723 -30 16 -129 72 -220 124 -91 52 -172
97 -180 101 -8 4 -31 17 -50 28 -51 31 -417 238 -475 270 -27 14 -64 35 -82
45 -48 28 -241 138 -298 169 -27 15 -54 31 -60 35 -5 4 -50 21 -100 38 -156
53 -295 67 -447 46z"/>
</g>
</svg>
